<?xml version="1.0" encoding="UTF-8" standalone="no"?> <svg width="64" height="64" viewBox="0 0 64 64" fill="none" xmlns="http://www.w3.org/2000/svg">
<path d="M54.2899 22.93L45.9999 16.29L34.6399 13L21.7899 14L12.7899 17.5L6.92986 22.64L3.35986 32.29L6.06986 39.43L10.9999 44.64L7.35986 49.29L3.78986 58.07L5.35986 57.07L20.2899 49.07L30.5699 50.07L41.1399 48.71L50.2099 43.93L55.3599 37.57L57.1399 31.43L54.2899 22.93ZM16.8899 35.93C16.0453 35.93 15.2198 35.6796 14.5176 35.2104C13.8154 34.7412 13.2681 34.0743 12.9449 33.2941C12.6217 32.5138 12.5372 31.6553 12.7019 30.827C12.8667 29.9987 13.2733 29.2378 13.8705 28.6407C14.4677 28.0435 15.2285 27.6368 16.0568 27.472C16.8851 27.3073 17.7437 27.3918 18.5239 27.715C19.3042 28.0382 19.971 28.5855 20.4402 29.2877C20.9094 29.9899 21.1599 30.8155 21.1599 31.66C21.1519 32.7873 20.6986 33.8657 19.8987 34.66C19.0987 35.4543 18.0172 35.9 16.8899 35.9V35.93ZM30.3199 35.93C29.4753 35.93 28.6498 35.6796 27.9476 35.2104C27.2454 34.7412 26.6981 34.0743 26.3749 33.2941C26.0517 32.5138 25.9672 31.6553 26.1319 30.827C26.2967 29.9987 26.7033 29.2378 27.3005 28.6407C27.8977 28.0435 28.6585 27.6368 29.4868 27.472C30.3151 27.3073 31.1737 27.3918 31.9539 27.715C32.7342 28.0382 33.401 28.5855 33.8702 29.2877C34.3394 29.9899 34.5899 30.8155 34.5899 31.66C34.5819 32.7873 34.1286 33.8657 33.3287 34.66C32.5287 35.4543 31.4472 35.9 30.3199 35.9V35.93ZM43.7499 35.93C42.9058 35.9339 42.0795 35.6876 41.3753 35.2221C40.6712 34.7567 40.1208 34.0929 39.7936 33.3148C39.4665 32.5367 39.3774 31.679 39.5375 30.8503C39.6975 30.0215 40.0997 29.2588 40.693 28.6584C41.2864 28.0581 42.0444 27.647 42.8712 27.4773C43.6981 27.3075 44.5567 27.3866 45.3386 27.7046C46.1205 28.0226 46.7906 28.5652 47.2643 29.2639C47.7379 29.9625 47.9939 30.7859 47.9999 31.63C47.9999 32.759 47.5527 33.8421 46.7563 34.6423C45.9598 35.4425 44.8789 35.8947 43.7499 35.9V35.93Z" fill="#78B9EB"/>
<path d="M61.2499 24.85C61.2499 13.79 48.8799 4.79004 33.6799 4.79004C20.0399 4.79004 8.67992 11.79 6.48992 21.57C4.12219 24.3928 2.80116 27.9461 2.74992 31.63C2.74992 36.3 4.99992 40.8 8.99992 44.38L2.85992 57.38C2.7373 57.621 2.69545 57.8951 2.74056 58.1617C2.78567 58.4283 2.91534 58.6733 3.11042 58.8605C3.3055 59.0477 3.55563 59.1672 3.82386 59.2014C4.09208 59.2355 4.36417 59.1824 4.59992 59.05L20.5999 50.39C23.7839 51.257 27.0701 51.6909 30.3699 51.68C44.0299 51.68 55.3699 44.42 57.5699 34.93C59.9125 32.0893 61.2112 28.5319 61.2499 24.85V24.85ZM33.6799 7.29004C47.4999 7.29004 58.7499 15.17 58.7499 24.85C58.7399 26.5104 58.4 28.1522 57.7499 29.68C56.3999 19.54 44.6099 11.58 30.3099 11.58C23.4714 11.4717 16.7637 13.4609 11.0899 17.28C15.1899 11.35 23.8899 7.29004 33.6799 7.29004ZM30.3199 49.18C27.0829 49.1945 23.8603 48.7467 20.7499 47.85C20.4353 47.7622 20.099 47.798 19.8099 47.95L6.75992 55L11.6799 44.54C11.8011 44.2867 11.8334 44 11.7717 43.7261C11.7101 43.4522 11.558 43.207 11.3399 43.03C7.40992 39.84 5.24992 35.78 5.24992 31.59C5.24992 22 16.4999 14.08 30.3199 14.08C44.1399 14.08 55.3899 22 55.3899 31.63C55.3899 41.26 44.1499 49.18 30.3199 49.18Z" fill="#006DF0"/>
</svg>
